<?xml version="1.0" encoding="UTF-8"?>
<svg width="55px" height="70px" viewBox="0 0 55 70" version="1.1" xmlns="http://www.w3.org/2000/svg" xmlns:xlink="http://www.w3.org/1999/xlink">
    <!-- Generator: Sketch 52.6 (67491) - http://www.bohemiancoding.com/sketch -->
    <title>2</title>
    <desc>Created with Sketch.</desc>
    <g id="Welcome" stroke="none" stroke-width="1" fill="none" fill-rule="evenodd">
        <g id="Desktop-HD" transform="translate(-312.000000, -2087.000000)" fill="#FADBBE">
            <g id="MISSION" transform="translate(310.000000, 1669.000000)">
                <g id="section-mission-body" transform="translate(0.000000, 169.000000)">
                    <path d="M2,318.768 L3.944,309.048 C8.9840252,304.943979 13.6819782,301.128018 18.038,297.6 C22.3940218,294.071982 26.173984,290.724016 29.378,287.556 C32.582016,284.387984 35.083991,281.346015 36.884,278.43 C38.684009,275.513985 39.584,272.616014 39.584,269.736 C39.584,267.575989 38.9720061,265.848006 37.748,264.552 C36.5239939,263.255994 34.7600115,262.608 32.456,262.608 C30.5839906,262.608 28.8920076,263.075995 27.38,264.012 C25.8679924,264.948005 24.1760094,266.135993 22.304,267.576 L14.096,257.64 C20.9360342,251.879971 27.7759658,249 34.616,249 C37.9280166,249 40.9339865,249.449996 43.634,250.35 C46.3340135,251.250005 48.6379905,252.527992 50.546,254.184 C52.4540095,255.840008 53.911995,257.837988 54.92,260.178 C55.928005,262.518012 56.432,265.127986 56.432,268.008 C56.432,271.392017 55.8020063,274.559985 54.542,277.512 C53.2819937,280.464015 51.5180113,283.379986 49.25,286.26 C46.9819887,289.140014 44.3180153,292.037985 41.258,294.954 C38.1979847,297.870015 34.9040176,300.983983 31.376,304.296 L52.112,304.296 L49.304,318.768 L2,318.768 Z" id="2"></path>
                </g>
            </g>
        </g>
    </g>
</svg>