<?xml version="1.0" encoding="UTF-8"?>
<svg width="56px" height="72px" viewBox="0 0 56 72" version="1.1" xmlns="http://www.w3.org/2000/svg" xmlns:xlink="http://www.w3.org/1999/xlink">
    <!-- Generator: Sketch 52.6 (67491) - http://www.bohemiancoding.com/sketch -->
    <title>3</title>
    <desc>Created with Sketch.</desc>
    <g id="Welcome" stroke="none" stroke-width="1" fill="none" fill-rule="evenodd">
        <g id="Desktop-HD" transform="translate(-310.000000, -2269.000000)" fill="#FADBBE">
            <g id="MISSION" transform="translate(310.000000, 1669.000000)">
                <g id="section-mission-body" transform="translate(0.000000, 169.000000)">
                    <path d="M24.408,502.064 C22.3199896,502.064 20.1960108,501.848002 18.036,501.416 C15.8759892,500.983998 13.7340106,500.282005 11.61,499.31 C9.48598938,498.337995 7.4340099,497.042008 5.454,495.422 C3.4739901,493.801992 1.65600828,491.840012 0,489.536 L10.8,480.68 C12.6720094,483.200013 14.8139879,485.089994 17.226,486.35 C19.6380121,487.610006 21.8879896,488.24 23.976,488.24 C27.2160162,488.24 29.7539908,487.574007 31.59,486.242 C33.4260092,484.909993 34.344,482.984013 34.344,480.464 C34.344,479.095993 34.1280022,477.890005 33.696,476.846 C33.2639978,475.801995 32.4540059,474.920004 31.266,474.2 C30.0779941,473.479996 28.4580103,472.940002 26.406,472.58 C24.3539897,472.219998 21.7440158,472.04 18.576,472.04 L20.952,459.944 C24.2640166,459.944 27.017989,459.710002 29.214,459.242 C31.410011,458.773998 33.1379937,458.126004 34.398,457.298 C35.6580063,456.469996 36.5399975,455.498006 37.044,454.382 C37.5480025,453.265994 37.8,452.024007 37.8,450.656 C37.8,448.783991 37.1520065,447.308005 35.856,446.228 C34.5599935,445.147995 32.7600115,444.608 30.456,444.608 C28.9439924,444.608 27.4500074,444.931997 25.974,445.58 C24.4979926,446.228003 22.6800108,447.199994 20.52,448.496 L12.312,437.48 C15.9840184,434.959987 19.5479827,433.250005 23.004,432.35 C26.4600173,431.449996 30.0239816,431 33.696,431 C36.8640158,431 39.7799867,431.395996 42.444,432.188 C45.1080133,432.980004 47.4119903,434.113993 49.356,435.59 C51.3000097,437.066007 52.8119946,438.84799 53.892,440.936 C54.9720054,443.02401 55.512,445.327987 55.512,447.848 C55.512,452.168022 54.4860103,455.803985 52.434,458.756 C50.3819897,461.708015 46.656027,464.119991 41.256,465.992 L41.256,466.424 C44.9280184,467.936008 47.5739919,469.951987 49.194,472.472 C50.8140081,474.992013 51.624,477.727985 51.624,480.68 C51.624,484.208018 50.922007,487.303987 49.518,489.968 C48.113993,492.632013 46.1880122,494.863991 43.74,496.664 C41.2919878,498.464009 38.4120166,499.813996 35.1,500.714 C31.7879834,501.614005 28.2240191,502.064 24.408,502.064 Z" id="3"></path>
                </g>
            </g>
        </g>
    </g>
</svg>