<?xml version="1.0" encoding="UTF-8"?>
<svg width="55px" height="69px" viewBox="0 0 55 69" version="1.1" xmlns="http://www.w3.org/2000/svg" xmlns:xlink="http://www.w3.org/1999/xlink">
    <!-- Generator: Sketch 52.6 (67491) - http://www.bohemiancoding.com/sketch -->
    <title>4</title>
    <desc>Created with Sketch.</desc>
    <g id="Welcome" stroke="none" stroke-width="1" fill="none" fill-rule="evenodd">
        <g id="Desktop-HD" transform="translate(-311.000000, -2481.000000)" fill="#FADBBE">
            <g id="MISSION" transform="translate(310.000000, 1669.000000)">
                <g id="section-mission-body" transform="translate(0.000000, 169.000000)">
                    <path d="M41.608,711.472 L25.84,711.472 L28.972,695.704 L1,695.704 L3.376,683.608 L34.264,643 L55.216,643 L47.332,682.528 L54.784,682.528 L52.192,695.704 L44.74,695.704 L41.608,711.472 Z M20.008,682.528 L31.564,682.528 L33.4,673.24 C33.9760029,670.647987 34.5879968,668.020013 35.236,665.356 C35.8840032,662.691987 36.4959971,660.064013 37.072,657.472 L36.64,657.472 C35.3439935,659.632011 34.0840061,661.827989 32.86,664.06 C31.6359939,666.292011 30.3040072,668.41599 28.864,670.432 L20.008,682.528 Z" id="4"></path>
                </g>
            </g>
        </g>
    </g>
</svg>