<?xml version="1.0" encoding="UTF-8"?>
<svg width="51px" height="52px" viewBox="0 0 51 52" version="1.1" xmlns="http://www.w3.org/2000/svg" xmlns:xlink="http://www.w3.org/1999/xlink">
    <!-- Generator: Sketch 52.6 (67491) - http://www.bohemiancoding.com/sketch -->
    <title>icon-life-and-com</title>
    <desc>Created with Sketch.</desc>
    <g id="Welcome" stroke="none" stroke-width="1" fill="none" fill-rule="evenodd">
        <g id="Desktop-HD" transform="translate(-390.000000, -3274.000000)">
            <g id="SERVICE" transform="translate(0.000000, 2770.000000)">
                <g id="section-services" transform="translate(280.000000, 428.000000)">
                    <g id="tab-head-1">
                        <g id="icon-life-and-com" transform="translate(110.000000, 76.000000)">
                            <path d="M40.583,48.9358274 L45.083,48.9358274 L45.083,43.7012487 L40.583,43.7012487 L40.583,48.9358274 Z M5.917,49.2443959 L9.75,49.2443959 L9.75,43.3926802 L5.917,43.3926802 L5.917,49.2443959 Z M2.083,42.3154619 L47.917,42.3154619 L47.917,38.0038173 L2.083,38.0038173 L2.083,42.3154619 Z M27.75,23.9925888 L37.75,23.9925888 L37.75,15.8312284 L27.75,15.8312284 L27.75,23.9925888 Z M12.75,24.3002335 L22.75,24.3002335 L22.75,16.1388731 L12.75,16.1388731 L12.75,24.3002335 Z" id="Fill-21" fill="#F47D0E"></path>
                            <path d="M44.49,41.5431168 L6.176,41.5431168 C4.965,41.5421929 3.912,40.9158173 3.377,39.994731 L47.289,39.994731 C46.753,40.9158173 45.701,41.5421929 44.49,41.5431168 Z M43.625,48.2872792 L42.249,48.288203 L42.249,44.3146904 L43.625,44.3146904 L43.625,48.2872792 Z M8.625,48.2872792 L7.249,48.288203 L7.249,44.3146904 L8.625,44.3146904 L8.625,48.2872792 Z M0,37.2231574 L0,38.609868 C0,41.1403147 1.783,43.2808934 4.251,44.0301421 L4.251,48.4581929 C4.251,49.8947919 5.51,51.0588528 7.066,51.0607005 L8.809,51.0588528 C10.366,51.0588528 11.623,49.8947919 11.625,48.4581929 L11.625,44.3146904 L39.251,44.3146904 L39.251,48.4581929 C39.251,49.8947919 40.51,51.0588528 42.066,51.0607005 L43.809,51.0588528 C45.366,51.0588528 46.623,49.8947919 46.625,48.4581929 L46.625,43.9580812 C48.983,43.1543249 50.665,41.0673299 50.665,38.609868 L50.665,37.2231574 L0,37.2231574 Z M8.341,23.5278883 L11.281,23.5278883 C12.038,24.7205888 13.425,25.5289645 15.031,25.5289645 L20.284,25.5289645 C21.89,25.5289645 23.277,24.7205888 24.035,23.5288122 L26.389,23.5288122 C27.147,24.7205888 28.535,25.5289645 30.14,25.5289645 L35.393,25.5289645 C36.997,25.5289645 38.385,24.7205888 39.143,23.5278883 L42.325,23.5278883 L46.099,32.0744975 L4.564,32.0744975 L8.341,23.5278883 Z M21.649,18.1889137 L21.649,21.4981726 C21.649,22.1938376 21.038,22.7573909 20.284,22.7573909 L15.031,22.7573909 C14.278,22.7573909 13.668,22.1938376 13.666,21.4981726 L13.666,18.1889137 C13.668,17.4941726 14.278,16.9306193 15.031,16.9287716 L20.284,16.9287716 C21.038,16.9306193 21.649,17.4941726 21.649,18.1889137 Z M36.758,18.1889137 L36.758,21.4981726 L36.756,21.4981726 C36.756,22.1938376 36.145,22.7573909 35.393,22.7573909 L30.14,22.7573909 C29.385,22.7573909 28.775,22.1938376 28.775,21.4981726 L28.773,18.1889137 C28.775,17.4941726 29.385,16.9306193 30.14,16.9287716 L35.393,16.9287716 C36.145,16.9306193 36.756,17.4941726 36.758,18.1889137 Z M8.832,3.2233401 C8.834,2.97297462 9.053,2.7715736 9.322,2.7715736 L41.035,2.7715736 C41.306,2.7715736 41.524,2.97297462 41.524,3.2233401 L41.524,20.7581624 L39.756,20.7581624 L39.756,18.1889137 C39.756,15.9614924 37.802,14.1581218 35.393,14.1562741 L30.14,14.1562741 C27.729,14.1581218 25.774,15.9614924 25.774,18.1889137 L25.774,20.7572386 L24.649,20.7572386 L24.649,18.1889137 C24.649,15.9614924 22.695,14.1581218 20.284,14.1562741 L15.031,14.1562741 C12.62,14.1581218 10.667,15.9614924 10.667,18.1889137 L10.667,20.7581624 L8.832,20.7581624 L8.832,3.2233401 Z M44.526,21.1794416 L44.524,3.2233401 C44.524,1.44121827 42.963,0 41.035,0 L9.322,0 C7.395,0 5.834,1.44121827 5.832,3.2233401 L5.832,21.8714112 L0.098,34.8460711 L50.566,34.8460711 L44.526,21.1794416 Z" id="Fill-22" fill="#141E26"></path>
                        </g>
                    </g>
                </g>
            </g>
        </g>
    </g>
</svg>