<?xml version="1.0" encoding="UTF-8"?>
<svg width="14px" height="15px" viewBox="0 0 14 15" version="1.1" xmlns="http://www.w3.org/2000/svg" xmlns:xlink="http://www.w3.org/1999/xlink">
    <!-- Generator: Sketch 52.6 (67491) - http://www.bohemiancoding.com/sketch -->
    <title>icon-instagram</title>
    <desc>Created with Sketch.</desc>
    <g id="Welcome" stroke="none" stroke-width="1" fill="none" fill-rule="evenodd">
        <g id="Desktop-HD" transform="translate(-78.000000, -1477.000000)" fill="#4A4A4A" fill-rule="nonzero">
            <g id="SIDEBAR" transform="translate(78.000000, 1282.000000)">
                <g id="icon-instagram" transform="translate(0.000000, 195.000000)">
                    <path d="M7.056,3.556 C5.096,3.556 3.472,5.152 3.472,7.14 C3.472,9.128 5.068,10.724 7.056,10.724 C9.044,10.724 10.64,9.1 10.64,7.14 C10.64,5.18 9.016,3.556 7.056,3.556 Z M7.056,9.436 C5.796,9.436 4.76,8.4 4.76,7.14 C4.76,5.88 5.796,4.844 7.056,4.844 C8.316,4.844 9.352,5.88 9.352,7.14 C9.352,8.4 8.316,9.436 7.056,9.436 Z" id="Shape"></path>
                    <circle id="Oval" cx="10.78" cy="3.472" r="1"></circle>
                    <path d="M12.88,1.372 C12.152,0.616 11.116,0.224 9.94,0.224 L4.172,0.224 C1.736,0.224 0.112,1.848 0.112,4.284 L0.112,10.024 C0.112,11.228 0.504,12.264 1.288,13.02 C2.044,13.748 3.052,14.112 4.2,14.112 L9.912,14.112 C11.116,14.112 12.124,13.72 12.852,13.02 C13.608,12.292 14,11.256 14,10.052 L14,4.284 C14,3.108 13.608,2.1 12.88,1.372 Z M12.768,10.052 C12.768,10.92 12.46,11.62 11.956,12.096 C11.452,12.572 10.752,12.824 9.912,12.824 L4.2,12.824 C3.36,12.824 2.66,12.572 2.156,12.096 C1.652,11.592 1.4,10.892 1.4,10.024 L1.4,4.284 C1.4,3.444 1.652,2.744 2.156,2.24 C2.632,1.764 3.36,1.512 4.2,1.512 L9.968,1.512 C10.808,1.512 11.508,1.764 12.012,2.268 C12.488,2.772 12.768,3.472 12.768,4.284 L12.768,10.052 Z" id="Shape"></path>
                </g>
            </g>
        </g>
    </g>
</svg>