<?xml version="1.0" encoding="UTF-8"?>
<svg width="48px" height="52px" viewBox="0 0 48 52" version="1.1" xmlns="http://www.w3.org/2000/svg" xmlns:xlink="http://www.w3.org/1999/xlink">
    <!-- Generator: Sketch 52.6 (67491) - http://www.bohemiancoding.com/sketch -->
    <title>icon-event-space</title>
    <desc>Created with Sketch.</desc>
    <g id="Welcome" stroke="none" stroke-width="1" fill="none" fill-rule="evenodd">
        <g id="Desktop-HD" transform="translate(-1001.000000, -3274.000000)">
            <g id="SERVICE" transform="translate(0.000000, 2770.000000)">
                <g id="section-services" transform="translate(280.000000, 428.000000)">
                    <g id="tab-head-3" transform="translate(610.000000, 0.000000)">
                        <g id="icon-event-space" transform="translate(111.000000, 76.000000)">
                            <path d="M15.627,40.8816345 L21.752,40.8816345 L21.752,35.2230051 L15.627,35.2230051 L15.627,40.8816345 Z M25.627,32.1049848 L31.377,32.1049848 L31.377,26.792802 L25.627,26.792802 L25.627,32.1049848 Z M5.752,31.2966091 L11.252,31.2966091 L11.252,26.2153909 L5.752,26.2153909 L5.752,31.2966091 Z" id="Fill-28" fill="#F47D0E"></path>
                            <path d="M37.5,30.3339492 L40.001,30.3339492 L40.001,28.0233807 L37.5,28.0233807 L37.5,30.3339492 Z M34.502,33.1064467 L43.001,33.1064467 L43.001,25.2536548 L34.502,25.2536548 L34.502,33.1064467 Z M27.501,37.2619594 L30,37.2619594 L30.001,39.5734518 L27.501,39.5734518 L27.501,37.2619594 Z M24.501,42.3441015 L33.001,42.3441015 L33.001,34.4913096 L24.501,34.4913096 L24.501,42.3441015 Z M17.499,37.2628832 L19.999,37.2628832 L20.001,39.5734518 L17.499,39.5734518 L17.499,37.2628832 Z M14.501,42.3441015 L23.001,42.3441015 L23.001,34.4913096 L14.501,34.4913096 L14.501,42.3441015 Z M7.499,39.5734518 L10.001,39.5734518 L10.001,37.2628832 L7.499,37.2628832 L7.499,39.5734518 Z M4.501,42.3441015 L13.001,42.3441015 L13.001,34.4922335 L4.501,34.4922335 L4.501,42.3441015 Z M27.501,28.0233807 L30,28.0233807 L30.001,30.3339492 L27.501,30.3339492 L27.501,28.0233807 Z M24.501,33.104599 L33.001,33.104599 L33.001,25.2518071 L24.501,25.2518071 L24.501,33.104599 Z M17.499,28.0233807 L19.999,28.0233807 L20.001,30.3339492 L17.499,30.3339492 L17.499,28.0233807 Z M14.501,33.104599 L23.001,33.104599 L23.001,25.2536548 L14.501,25.2536548 L14.501,33.104599 Z M7.499,30.3339492 L10.001,30.3339492 L10.001,28.0243046 L7.499,28.0243046 L7.499,30.3339492 Z M4.501,33.1055228 L13.001,33.1055228 L13.001,25.252731 L4.501,25.252731 L4.501,33.1055228 Z M44.5,43.855533 C44.496,46.2935939 42.362,48.2678782 39.72,48.2715736 L7.783,48.2715736 C5.141,48.2678782 3.006,46.2935939 3.002,43.855533 L3,14.3502843 C3.006,11.9094518 5.141,9.93701523 7.783,9.93147208 L8.666,9.93147208 L8.666,10.8562538 C8.669,13.6213604 11.094,15.8589442 14.086,15.8617157 L14.086,13.0892183 C12.749,13.0873706 11.671,12.0886802 11.669,10.8562538 L11.669,9.93147208 L25.667,9.93147208 L25.667,10.8553299 C25.669,13.6213604 28.093,15.8589442 31.085,15.8607919 L31.085,13.0882944 C29.75,13.0864467 28.672,12.0886802 28.669,10.8553299 L28.669,9.93147208 L39.72,9.93147208 C42.362,9.93701523 44.496,11.9094518 44.5,14.3502843 L44.502,43.855533 L44.5,43.855533 Z M11.669,5.00546193 C11.671,3.77303553 12.749,2.77526904 14.086,2.77342132 C15.418,2.77526904 16.498,3.77303553 16.5,5.00546193 L16.502,7.16174619 L11.669,7.16174619 L11.669,5.00546193 Z M28.669,5.00546193 C28.672,3.77211168 29.75,2.77434518 31.085,2.77249746 C32.417,2.77434518 33.498,3.77211168 33.5,5.00546193 L33.502,7.15989848 L28.669,7.16082234 L28.669,5.00546193 Z M47.5,43.855533 L47.5,14.3502843 C47.5,10.3786193 44.017,7.16174619 39.72,7.15989848 L36.502,7.15989848 L36.5,5.00546193 C36.5,2.23943147 34.078,0.0027715736 31.085,0 C28.093,0.0027715736 25.669,2.23943147 25.667,5.00546193 L25.667,7.16082234 L19.501,7.16082234 L19.501,5.00546193 C19.501,2.23943147 17.076,0.000923857868 14.086,0.000923857868 C11.094,0.000923857868 8.669,2.23943147 8.666,5.00546193 L8.666,7.16174619 L7.783,7.16174619 C3.486,7.16174619 0.002,10.3786193 0,14.3502843 L0.002,43.855533 C0.002,47.8244264 3.486,51.0431472 7.783,51.0431472 L39.72,51.0431472 C44.017,51.0431472 47.5,47.8244264 47.502,43.855533 L47.5,43.855533 Z" id="Fill-29" fill="#141E26"></path>
                            <polygon id="Fill-30" fill="#F47D0E" points="7.502 23.250731 39.836 23.250731 39.836 20.4800812 7.502 20.4800812"></polygon>
                        </g>
                    </g>
                </g>
            </g>
        </g>
    </g>
</svg>