<?xml version="1.0" encoding="UTF-8"?>
<svg width="8px" height="16px" viewBox="0 0 8 16" version="1.1" xmlns="http://www.w3.org/2000/svg" xmlns:xlink="http://www.w3.org/1999/xlink">
    <!-- Generator: Sketch 52.6 (67491) - http://www.bohemiancoding.com/sketch -->
    <title>icon-facebook</title>
    <desc>Created with Sketch.</desc>
    <g id="Welcome" stroke="none" stroke-width="1" fill="none" fill-rule="evenodd">
        <g id="Desktop-HD" transform="translate(-81.000000, -1442.000000)" fill="#4A4A4A" fill-rule="nonzero">
            <g id="SIDEBAR" transform="translate(78.000000, 1282.000000)">
                <g id="icon-facebook" transform="translate(3.000000, 160.000000)">
                    <path d="M7.65061224,5.13926531 L5.15428571,5.13926531 L5.15428571,3.50204082 C5.15428571,2.88718367 5.56179592,2.74383673 5.84881633,2.74383673 C6.13518367,2.74383673 7.61044898,2.74383673 7.61044898,2.74383673 L7.61044898,0.0408163265 L5.18432653,0.0313469388 C2.49110204,0.0313469388 1.87820408,2.04734694 1.87820408,3.33746939 L1.87820408,5.13926531 L0.320653061,5.13926531 L0.320653061,7.92457143 L1.87820408,7.92457143 C1.87820408,11.499102 1.87820408,15.8060408 1.87820408,15.8060408 L5.15428571,15.8060408 C5.15428571,15.8060408 5.15428571,11.4566531 5.15428571,7.92457143 L7.36489796,7.92457143 L7.65061224,5.13926531 Z" id="Shape"></path>
                </g>
            </g>
        </g>
    </g>
</svg>