<?xml version="1.0" encoding="UTF-8"?>
<svg width="59px" height="58px" viewBox="0 0 59 58" version="1.1" xmlns="http://www.w3.org/2000/svg" xmlns:xlink="http://www.w3.org/1999/xlink">
    <!-- Generator: Sketch 52.6 (67491) - http://www.bohemiancoding.com/sketch -->
    <title>icon-home-place</title>
    <desc>Created with Sketch.</desc>
    <g id="Welcome" stroke="none" stroke-width="1" fill="none" fill-rule="evenodd">
        <g id="Desktop-HD" transform="translate(-691.000000, -3271.000000)">
            <g id="SERVICE" transform="translate(0.000000, 2770.000000)">
                <g id="section-services" transform="translate(280.000000, 428.000000)">
                    <g id="tab-head-2" transform="translate(305.000000, 0.000000)">
                        <g id="icon-home-place" transform="translate(106.000000, 73.000000)">
                            <path d="M1.831,50.2347716 C1.998,52.8529848 3.998,56.0864873 5.498,56.2398477 C6.998,56.394132 48.831,56.394132 52.331,56.0864873 C55.831,55.7788426 56.831,50.6967005 56.831,50.6967005 L1.831,50.2347716 Z M19.664,31.2956853 L24.664,31.2956853 L24.664,24.5977157 L19.664,24.5977157 L19.664,31.2956853 Z" id="Fill-46" fill="#F47D0E"></path>
                            <path d="M39.539,4.84840609 L18.667,4.85025381 C18.045,4.84840609 17.543,4.38462944 17.54,3.80998985 C17.543,3.23535025 18.045,2.7715736 18.667,2.7715736 L33.915,2.76972589 C34.744,2.76972589 35.415,2.14981726 35.415,1.3857868 C35.415,0.620832487 34.744,0 33.915,0 L18.667,0 C16.388,0 14.54,1.70451777 14.54,3.80998985 C14.54,5.91638579 16.388,7.6199797 18.667,7.62182741 L38.541,7.6199797 L39.539,7.6199797 C40.162,7.62182741 40.664,8.08652792 40.664,8.66116751 C40.664,9.23395939 40.162,9.6986599 39.539,9.6986599 L27.776,9.6986599 C25.496,9.70050761 23.651,11.4050254 23.649,13.5114213 C23.651,15.6168934 25.496,17.3204873 27.776,17.322335 L30.165,17.3204873 C30.992,17.3204873 31.665,16.7005787 31.665,15.9365482 C31.665,15.1706701 30.992,14.5516853 30.165,14.5516853 L27.776,14.5516853 C27.153,14.5489137 26.651,14.0851371 26.651,13.5114213 C26.651,12.9358579 27.153,12.4720812 27.776,12.4720812 L39.539,12.4720812 C41.819,12.4693096 43.664,10.7666396 43.664,8.66116751 C43.664,6.55477157 41.819,4.85025381 39.539,4.84840609" id="Fill-47" fill="#F47D0E"></path>
                            <path d="M51.416,54.7395025 L7.417,54.7395025 C5.473,54.736731 3.826,53.5782132 3.234,51.9688528 L55.597,51.9688528 C55.005,53.5782132 53.358,54.736731 51.416,54.7395025 Z M13.665,37.8014924 L13.665,21.3254112 L20.916,21.3254112 L20.916,23.6359797 L18.165,23.6359797 L18.165,32.9521624 L26.916,32.9521624 L26.916,23.6359797 L23.915,23.6359797 L23.915,21.3254112 L45.665,21.3254112 L45.665,37.8014924 C45.655,43.1580203 40.962,47.4927614 35.166,47.502 L24.166,47.502 C18.366,47.4927614 13.676,43.1580203 13.665,37.8014924 Z M21.166,30.1805888 L23.915,30.1805888 L23.915,26.4075533 L21.166,26.4075533 L21.166,30.1805888 Z M49.926,25.0199188 C52.378,25.0254619 54.364,26.8583959 54.367,29.1255431 L54.367,34.8054213 C54.364,37.0725685 52.378,38.9045787 49.926,38.909198 L48.606,38.909198 C48.641,38.5433503 48.666,38.1756548 48.666,37.8014924 L48.665,25.0199188 L49.926,25.0199188 Z M58.826,50.5211675 L58.826,49.1954315 L40.639,49.1954315 C44.105,47.7726904 46.799,45.0445381 47.991,41.6816954 L49.926,41.6816954 C54.035,41.6816954 57.367,38.603401 57.367,34.8054213 L57.368,29.1255431 C57.367,25.3266396 54.035,22.249269 49.926,22.249269 L48.664,22.249269 L48.664,20.247269 C48.662,20.0310863 48.646,19.9128325 48.648,19.8915838 L48.595,18.5538376 L10.721,18.5538376 L10.682,19.9045178 C10.684,19.9156041 10.668,20.0310863 10.666,20.247269 L10.666,37.8014924 C10.666,42.8873299 13.966,47.2544061 18.693,49.1954315 L0.029,49.1954315 L0.005,50.5156244 L0.004,50.5156244 C0.004,50.5331777 0,50.5821421 0,50.6588223 C0,54.443868 3.319,57.5101523 7.417,57.5101523 L51.416,57.5101523 C55.511,57.5101523 58.83,54.443868 58.832,50.6588223 C58.83,50.5821421 58.826,50.5350254 58.826,50.5211675 Z" id="Fill-48" fill="#141E26"></path>
                        </g>
                    </g>
                </g>
            </g>
        </g>
    </g>
</svg>