<?xml version="1.0" encoding="UTF-8"?>
<svg width="192px" height="30px" viewBox="0 0 192 30" version="1.1" xmlns="http://www.w3.org/2000/svg" xmlns:xlink="http://www.w3.org/1999/xlink">
    <!-- Generator: Sketch 53 (72520) - https://sketchapp.com -->
    <title>Life&amp;Com OL</title>
    <desc>Created with Sketch.</desc>
    <g id="Welcome" stroke="none" stroke-width="1" fill="none" fill-rule="evenodd">
        <g id="Desktop-HD" transform="translate(-624.000000, -234.000000)" fill="#4A4A4A" fill-rule="nonzero">
            <path d="M624.276,263.276475 L624.276,237.295845 L629.325661,237.295845 L629.325661,258.922964 L639.561459,258.922964 L639.561459,263.276475 L624.276,263.276475 Z M645.448939,263.276475 L645.448939,243.615458 L650.430361,243.615458 L650.430361,263.276475 L645.448939,263.276475 Z M647.973769,240.455651 C646.233683,240.455651 644.971268,239.261947 644.971268,237.646935 C644.971268,235.961705 646.233683,234.838218 647.973769,234.838218 C649.679735,234.838218 650.942151,235.961705 650.942151,237.646935 C650.942151,239.261947 649.679735,240.455651 647.973769,240.455651 Z M668.839634,235.470179 L667.918412,239.261947 C667.270145,239.016184 666.51952,238.840639 665.905372,238.840639 C664.404121,238.840639 663.585257,239.753472 663.585257,241.930228 L663.585257,243.615458 L667.167787,243.615458 L667.167787,247.688097 L663.585257,247.688097 L663.585257,263.276475 L658.569716,263.276475 L658.569716,247.688097 L656.010766,247.688097 L656.010766,243.86122 L658.569716,243.650567 L658.569716,242.035554 C658.569716,237.927806 660.41216,234.768 665.222985,234.768 C666.690116,234.768 667.986651,235.11909 668.839634,235.470179 Z M680.186206,263.768 C674.863591,263.768 670.701033,259.941123 670.701033,253.481075 C670.701033,247.091245 675.034187,243.123932 679.606177,243.123932 C684.860554,243.123932 687.5901,247.091245 687.5901,252.533133 C687.5901,253.481075 687.487742,254.429017 687.351265,254.885433 L675.580097,254.885433 C675.989529,258.115458 678.036688,259.800688 680.868593,259.800688 C682.438082,259.800688 683.802855,259.309162 685.167628,258.431438 L686.873594,261.591245 C684.997031,262.925385 682.574559,263.768 680.186206,263.768 Z M675.511858,251.479864 L683.291065,251.479864 C683.291065,248.811584 682.131008,247.126354 679.674416,247.126354 C677.661376,247.126354 675.887171,248.60093 675.511858,251.479864 Z M706.359522,256.079138 C706.359522,258.291002 708.031369,259.800688 710.453841,259.800688 C711.682137,259.800688 712.944552,259.309162 714.138729,258.501656 C711.989211,256.67599 710.044409,254.604562 708.440801,252.427806 C707.212505,253.516184 706.359522,254.67478 706.359522,256.079138 Z M708.884352,243.404804 C708.884352,244.493182 709.225545,245.651777 709.805574,246.880591 C711.784495,245.651777 713.319865,244.387855 713.319865,242.491971 C713.319865,241.192939 712.739836,240.244998 711.409182,240.244998 C709.942051,240.244998 708.884352,241.473811 708.884352,243.404804 Z M725.091033,259.554925 L723.862737,263.768 C721.883816,263.311584 719.700179,262.398751 717.584781,261.029501 C715.503502,262.714731 712.944552,263.768 709.839693,263.768 C704.551197,263.768 701.582816,260.432649 701.582816,256.395119 C701.582816,252.778896 703.800572,250.672358 706.325403,249.022237 C705.301823,247.056136 704.721794,245.125143 704.721794,243.404804 C704.721794,239.788581 707.280744,236.80432 711.340944,236.80432 C714.923473,236.80432 717.209468,239.051293 717.209468,242.456862 C717.209468,245.89754 714.479922,248.039186 711.784495,249.970179 C713.285746,251.901172 715.230547,253.797056 717.243588,255.376959 C718.574241,253.551293 719.66606,251.339429 720.348447,248.776475 L724.886317,248.776475 C723.965095,251.97139 722.566203,254.99076 720.621401,257.69415 C722.259129,258.642092 723.794499,259.309162 725.091033,259.554925 Z M750.71844,263.768 C744.338125,263.768 739.151987,259.0634 739.151987,250.391487 C739.151987,241.824901 744.508722,236.80432 750.889036,236.80432 C754.096253,236.80432 756.655203,238.384223 758.292931,240.139671 L755.631623,243.439913 C754.369208,242.17599 752.902077,241.263157 750.991394,241.263157 C747.17003,241.263157 744.304006,244.633617 744.304006,250.215942 C744.304006,255.868484 746.897075,259.274053 750.889036,259.274053 C753.038554,259.274053 754.744521,258.220785 756.109294,256.711099 L758.770601,259.941123 C756.689322,262.43386 753.993895,263.768 750.71844,263.768 Z M772.30081,263.768 C767.524104,263.768 763.122711,259.976232 763.122711,253.481075 C763.122711,246.9157 767.524104,243.123932 772.30081,243.123932 C777.077516,243.123932 781.47891,246.9157 781.47891,253.481075 C781.47891,259.976232 777.077516,263.768 772.30081,263.768 Z M772.30081,259.554925 C774.893879,259.554925 776.361011,257.167516 776.361011,253.481075 C776.361011,249.759525 774.893879,247.337007 772.30081,247.337007 C769.707741,247.337007 768.24061,249.759525 768.24061,253.481075 C768.24061,257.167516 769.707741,259.554925 772.30081,259.554925 Z M787.571105,263.276475 L787.571105,243.615458 L791.665425,243.615458 L792.006618,246.24863 L792.143095,246.24863 C793.746704,244.528291 795.520909,243.123932 798.01162,243.123932 C800.741166,243.123932 802.344775,244.387855 803.265996,246.56461 C805.006082,244.668726 806.848526,243.123932 809.339237,243.123932 C813.399437,243.123932 815.276,246.073085 815.276,251.023448 L815.276,263.276475 L810.260459,263.276475 L810.260459,251.655409 C810.260459,248.636039 809.407476,247.547661 807.599151,247.547661 C806.507333,247.547661 805.279037,248.284949 803.914264,249.759525 L803.914264,263.276475 L798.898722,263.276475 L798.898722,251.655409 C798.898722,248.636039 798.045739,247.547661 796.237415,247.547661 C795.145596,247.547661 793.9173,248.284949 792.552527,249.759525 L792.552527,263.276475 L787.571105,263.276475 Z" id="Life&amp;Com-OL"></path>
        </g>
    </g>
</svg>