<?xml version="1.0" encoding="UTF-8"?>
<svg width="194px" height="16px" viewBox="0 0 194 16" version="1.1" xmlns="http://www.w3.org/2000/svg" xmlns:xlink="http://www.w3.org/1999/xlink">
    <!-- Generator: Sketch 52.6 (67491) - http://www.bohemiancoding.com/sketch -->
    <title>logo-nihonzaidan-zaitakukango</title>
    <desc>Created with Sketch.</desc>
    <g id="Welcome" stroke="none" stroke-width="1" fill="none" fill-rule="evenodd">
        <g id="Desktop-HD" transform="translate(-694.000000, -5574.000000)" fill="#231916">
            <g id="FOOTER" transform="translate(0.000000, 5533.000000)">
                <g id="txt-footer" transform="translate(280.000000, 33.000000)">
                    <g id="Group" transform="translate(414.000000, 2.000000)">
                        <g id="logo-nihonzaidan-zaitakukango" transform="translate(0.000000, 6.000000)">
                            <path d="M8.88801698,7.4553231 L2.05007397,7.4553231 L2.05007397,2.4612491 C2.05007397,2.11207874 2.282852,1.88951871 2.59487361,1.88951871 L8.32623657,1.88951871 C8.63931948,1.88951871 8.88801698,2.11207874 8.88801698,2.4612491 L8.88801698,7.4553231 Z M8.88801698,13.537308 C8.88801698,13.9030712 8.60818807,14.1256312 8.32623657,14.1256312 L2.59487361,14.1256312 C2.33061041,14.1256312 2.05007397,13.9178605 2.05007397,13.537308 L2.05007397,8.34448109 L8.88801698,8.34448109 L8.88801698,13.537308 Z M9.13105422,1 L1.87036084,1 C0.795619734,1 0,1.49309492 0,2.77975884 L0,13.2195197 C0,14.7915078 1.1840548,15 1.87036084,15 L9.13105422,15 C10.2061491,15 11,14.5069051 11,13.2195197 L11,2.77975884 C11,1.20668865 9.8159452,1 9.13105422,1 Z" id="Fill-1"></path>
                            <path d="M22.475459,7.12271009 C24.5055802,10.5324949 27.9527181,12.8696569 28.5557422,12.8696569 C28.7767911,12.8696569 29,12.6926432 29,12.4214888 C29,12.197223 28.8563543,12.0849084 28.7613105,12.0220268 C25.924397,9.89204711 23.9277571,6.4182902 23.1976479,4.01679267 L28.3966159,4.01679267 C28.5708628,4.01679267 28.9359174,3.98553359 28.9359174,3.56826112 C28.9359174,3.18406514 28.5877835,3.1371765 28.3966159,3.1371765 L22.5777031,3.1371765 L22.5777031,1.4248328 C22.5777031,0.815644083 22.5777031,0 21.4677787,0 C20.3891756,0 20.3891756,0.784021518 20.3891756,1.4248328 L20.3891756,3.1371765 L14.6188648,3.1371765 C14.4597384,3.1371765 14.0788432,3.16916255 14.0788432,3.58461762 C14.0788432,3.98553359 14.4446178,4.01679267 14.6188648,4.01679267 L19.8016321,4.01679267 C19.0553222,6.46663274 17.0453618,9.90913056 14.2376095,12.0220268 C14.1422057,12.0849084 14,12.197223 14,12.4214888 C14,12.6926432 14.2376095,12.8696569 14.4446178,12.8696569 C14.9353174,12.8696569 18.2560902,10.8207328 20.4910596,7.18813609 L20.4910596,10.8207328 L17.9954398,10.8207328 C17.8366735,10.8207328 17.4564983,10.8534458 17.4564983,11.2529078 C17.4564983,11.6698168 17.8366735,11.7010759 17.9954398,11.7010759 L20.4910596,11.7010759 L20.4910596,13.5744402 C20.4910596,14.2297906 20.3891756,15 21.4846994,15 C22.5777031,15 22.475459,14.1665455 22.475459,13.5744402 L22.475459,11.7010759 L24.9714389,11.7010759 C25.1456858,11.7010759 25.5118205,11.6534603 25.5118205,11.2529078 C25.5118205,10.8690753 25.1629665,10.8207328 24.9714389,10.8207328 L22.475459,10.8207328 L22.475459,7.12271009 Z" id="Fill-2"></path>
                            <path d="M34.5480236,4.05431503 L32.527818,4.05431503 L32.527818,2.25714142 C32.527818,1.97797224 32.5892826,1.86919131 32.9178,1.86919131 L34.1587481,1.86919131 C34.4699566,1.86919131 34.5480236,1.96072219 34.5480236,2.25714142 L34.5480236,4.05431503 Z M34.5480236,7.13960974 L32.527818,7.13960974 L32.527818,4.90625629 L34.5480236,4.90625629 L34.5480236,7.13960974 Z M34.5480236,9.91510762 C34.5480236,10.2094146 34.4699566,10.3174915 34.1587481,10.3174915 L32.9178,10.3174915 C32.5892826,10.3174915 32.527818,10.2094146 32.527818,9.91510762 L32.527818,8.008449 L34.5480236,8.008449 L34.5480236,9.91510762 Z M35.7861457,12.0097566 C35.6939489,11.6823577 35.5678406,11.2951116 35.086015,11.172249 C35.4908333,11.1398612 36.3457911,11.0930396 36.3457911,9.99290887 L36.3457911,2.17863609 C36.3457911,1.34112855 35.7698965,1 34.977569,1 L32.0982726,1 C31.3981419,1 30.7305097,1.26403138 30.7305097,2.17863609 L30.7305097,9.99290887 C30.7305097,11.0634681 31.6012576,11.1398612 31.9431983,11.172249 C31.4610195,11.2799738 31.3522201,11.6355361 31.2900491,11.8383122 C30.9477551,12.8919734 30.791621,13.4048984 30.1073863,14.2874673 C30.0600516,14.3487226 30,14.427932 30,14.5666365 C30,14.7834943 30.1688509,15 30.4503868,15 C30.9000671,15 33.2968314,12.9701267 33.2968314,12.0703078 C33.2968314,11.6823577 32.9072027,11.2799738 32.4412731,11.172249 L34.5727507,11.172249 C34.1372002,11.2799738 33.7012964,11.6355361 33.7012964,12.0865017 C33.7012964,12.9535808 36.0959412,15 36.5648027,15 C36.8431594,15 37,14.7834943 37,14.5666365 C37,14.5050292 36.984104,14.411386 36.9371225,14.3335848 C36.3147056,13.4506639 36.0959412,13.047928 35.7861457,12.0097566 Z" id="Fill-3"></path>
                            <path d="M46.4169344,3.72946813 L45.1941381,3.72946813 L45.1941381,1.21101388 C45.1941381,0.823474775 45.1941381,0 44.0409032,0 C42.905254,0 43.0158489,0.839240321 43.0158489,1.22677943 L43.0158489,3.72946813 L38.6026053,3.72946813 C38.4130699,3.72946813 38.017195,3.77823133 38.017195,4.18336918 C38.017195,4.56944173 38.3962657,4.63397047 38.6026053,4.63397047 L41.9056014,4.63397047 C40.8887538,8.86390301 38.8081633,11.3515594 38.1895354,12.0947399 C38.0508033,12.2718273 38,12.3356228 38,12.4815458 C38,12.7400274 38.2231437,12.9336136 38.4646548,12.9336136 C38.6530178,12.9336136 38.7745549,12.8368205 38.8769431,12.7557929 C41.0110725,11.0120503 42.3792445,8.91339949 43.0158489,7.60485921 L43.0158489,13.6437964 C43.0158489,13.950308 42.8958749,14.0969642 42.5343899,14.0969642 L40.8223187,14.0969642 C40.6159792,14.0969642 40.2372992,14.1449941 40.2372992,14.5482988 C40.2372992,14.9354713 40.5987842,15 40.8223187,15 L43.4042987,15 C44.7474598,15 45.1941381,14.2905504 45.1941381,13.4505768 L45.1941381,4.63397047 L46.4169344,4.63397047 C46.6041251,4.63397047 47,4.58667384 47,4.18336918 C47,3.79399687 46.6221016,3.72946813 46.4169344,3.72946813" id="Fill-4"></path>
                            <path d="M59.9357838,13.6096425 C59.9357838,13.8290793 59.7126547,14.1254431 59.4110506,14.1254431 L50.5889494,14.1254431 C50.3021724,14.1254431 50.0475809,13.8616935 50.0475809,13.6096425 L50.0475809,2.38893953 C50.0475809,2.15461359 50.2696252,1.85789527 50.5889494,1.85789527 L59.4110506,1.85789527 C59.6822773,1.85789527 59.9357838,2.1237719 59.9357838,2.38893953 L59.9357838,13.6096425 Z M60.0887557,1 L49.910521,1 C48.8122336,1 48,1.48318647 48,2.74805024 L48,13.2515953 C48,14.7972248 49.2089479,15 49.910521,15 L60.0887557,15 C61.1704079,15 62,14.5001519 62,13.2515953 L62,2.74805024 C62,1.20135724 60.773332,1 60.0887557,1 Z" id="Fill-5"></path>
                            <path d="M59.430505,4.55537021 L59.0140428,4.55537021 L59.0140428,3.36905532 C59.0140428,2.74219574 59.0140428,2 57.8742915,2 C56.7825057,2 56.7825057,2.7744 56.7825057,3.36905532 L56.7825057,4.55537021 L51.569495,4.55537021 C51.3844852,4.55537021 51,4.5883234 51,5.0013617 C51,5.41402553 51.3696388,5.46233191 51.569495,5.46233191 L56.7825057,5.46233191 L56.7825057,11.5979915 C56.7825057,11.9278979 56.682768,12.0930383 56.2986634,12.0930383 L54.5372642,12.0930383 C54.3533965,12.0930383 53.9673885,12.1413447 53.9673885,12.554383 C53.9673885,12.9494468 54.3358853,13 54.5372642,13 L57.2697741,13 C58.5610354,13 59.0140428,12.2911319 59.0140428,11.4163745 L59.0140428,5.46233191 L59.430505,5.46233191 C59.6136114,5.46233191 60,5.41402553 60,5.0013617 C60,4.6059234 59.6315033,4.55537021 59.430505,4.55537021" id="Fill-6"></path>
                            <path d="M56,8.89023127 C56,8.49568519 55.9327536,8.23610632 54.6902415,7.2478426 C53.9400966,6.67000345 52.8019324,6 52.5105314,6 C52.2724638,6 52,6.22989299 52,6.45771488 C52,6.59406282 52.0854106,6.67000345 52.2229952,6.83741802 C52.9201932,7.61339317 53.4141063,8.47911633 53.651401,8.9820504 C54.0088889,9.74111149 54.1275362,10 54.706087,10 C55.4558454,10 56,9.37556093 56,8.89023127" id="Fill-7"></path>
                            <path d="M79.4615052,2.59599393 C79.6510957,2.59599393 80,2.64408128 80,3.02588763 C80,3.43914961 79.6363178,3.47096681 79.4615052,3.47096681 L71.968714,3.47096681 C71.0647347,5.25489913 70.0490196,6.38477113 69.7001153,6.7673006 L69.7001153,13.6137826 C69.7001153,14.2674814 69.7001153,15 68.6516003,15 C67.6045271,15 67.6045271,14.2830284 67.6045271,13.6137826 L67.6045271,8.69513342 C67.0645905,9.09212524 65.7298875,10.015547 65.4455017,10.015547 C65.2061707,10.015547 65,9.82428231 65,9.5701063 C65,9.34630125 65.1420127,9.23602574 65.2710496,9.1402126 C67.2700404,7.73844819 68.7463956,5.73288018 69.6824539,3.47096681 L65.7151096,3.47096681 C65.5251586,3.47096681 65.175173,3.42215634 65.175173,3.04071155 C65.175173,2.64408128 65.5399366,2.59599393 65.7151096,2.59599393 L70.0003604,2.59599393 C70.1910323,2.02256128 70.3016869,1.60821462 70.4289216,0.987417745 C70.4768599,0.699978306 70.6040946,0 71.5242935,0 C72.3179787,0 72.8741349,0.46062622 72.8741349,1.03478198 C72.8741349,1.32077518 72.6355248,2.00556801 72.3814158,2.59599393 L79.4615052,2.59599393 Z" id="Fill-8"></path>
                            <path d="M74.8460128,14.0706298 L74.8460128,8.72156284 L72.1950701,8.72156284 C72.0190008,8.72156284 71.6455873,8.66949094 71.6455873,8.25367042 C71.6455873,7.85482986 72.0010271,7.80539929 72.1950701,7.80539929 L74.8460128,7.80539929 L74.8460128,5.51197173 C74.8460128,4.78107849 74.8460128,4 75.9596508,4 C77.0758565,4 77.0758565,4.81428375 77.0758565,5.51197173 L77.0758565,7.80539929 L79.773751,7.80539929 C79.9498203,7.80539929 80.3225002,7.83784989 80.3225002,8.25367042 C80.3225002,8.66949094 79.967794,8.72156284 79.773751,8.72156284 L77.0758565,8.72156284 L77.0758565,14.0706298 L80.4505172,14.0706298 C80.6284205,14.0706298 81,14.1200604 81,14.5347489 C81,14.9335895 80.6606999,15 80.4505172,15 L71.5498496,15 C71.3737804,15 71,14.9498148 71,14.5347489 C71,14.137795 71.3561734,14.0706298 71.5498496,14.0706298 L74.8460128,14.0706298 Z" id="Fill-9"></path>
                            <path d="M89.8002635,9.1691356 L96.4196004,8.76194616 C96.726268,8.74686507 97,8.87670958 97,9.21658586 C97,9.65393747 96.5630535,9.68630664 96.4690039,9.68630664 L89.8002635,10.0916569 L89.8002635,13.6390236 C89.8002635,13.9307139 89.8818707,14.1083765 90.2683159,14.1083765 L93.489058,14.1083765 C93.9095367,14.1083765 94.3267218,14.1083765 94.5697138,12.7646882 C94.7929444,11.5810065 94.8577179,11.2576827 95.5984044,11.2576827 C95.9043402,11.2576827 96.7899436,11.3867915 96.7899436,12.1978599 C96.7899436,12.7319512 96.4196004,13.7044976 96.1308644,14.1900351 C95.647076,15 94.8906536,15 94.2623143,15 L89.2692674,15 C88.0433287,15 87.5917441,14.3209831 87.5917441,13.4459121 L87.5917441,10.2373182 L82.5800337,10.5455609 C82.288736,10.5613777 82,10.4480856 82,10.0916569 C82,9.73522822 82.288736,9.65393747 82.5148942,9.63664939 L87.5917441,9.31369336 L87.5917441,6.72232068 C86.9312011,6.78742685 84.6648613,6.91690353 84.5982581,6.91690353 C84.1324014,6.91690353 84.1001976,6.55900351 84.1001976,6.46410299 C84.1001976,6.0094633 84.4862768,5.97635847 84.712801,5.96127738 C86.1294006,5.84724962 89.2147405,5.52392576 91.6142868,4.43845511 C92.212618,4.17839826 92.5822294,4 92.7772817,4 C93.3884213,4 93.8729415,4.66467146 93.8729415,5.19839492 C93.8729415,5.66885136 93.5490741,5.76522321 93.26107,5.84724962 C92.5028178,6.07346598 92.2323794,6.15475673 89.8002635,6.494633 L89.8002635,9.1691356 Z" id="Fill-10"></path>
                            <path d="M88.8983455,2.06851997 L88.8983455,1.06891151 C88.8983455,0 89.9161592,0 89.9960922,0 C90.0412099,0 91.0895757,0 91.0895757,1.06891151 L91.0895757,2.06851997 L95.624797,2.06851997 C96.3267864,2.06851997 97,2.36217698 97,3.37940486 L97,4.46671887 C97,5.20869225 97,6 95.9519894,6 C94.8890581,6 94.8890581,5.18950666 94.8890581,4.46671887 L94.8890581,3.53523884 C94.8890581,3.20634299 94.7949147,3.01840251 94.4375254,3.01840251 L85.567093,3.01840251 C85.1915855,3.01840251 85.1134287,3.20634299 85.1134287,3.53523884 L85.1134287,4.46671887 C85.1134287,5.20869225 85.1134287,6 84.0338002,6 C83,6 83,5.18950666 83,4.46671887 L83,3.37940486 C83,2.43108849 83.5812018,2.06851997 84.3769793,2.06851997 L88.8983455,2.06851997 Z" id="Fill-11"></path>
                            <path d="M105.176577,8.34144534 L110.006926,8.34144534 C110.372532,8.34144534 110.468459,8.50376776 110.468459,8.81544163 L110.468459,9.64706609 L104.715768,9.64706609 L104.715768,8.81544163 C104.715768,8.50376776 104.810971,8.34144534 105.176577,8.34144534 Z M110.468459,11.8506485 L104.715406,11.8506485 L104.715406,10.5450278 L110.468459,10.5450278 L110.468459,11.8506485 Z M110.468459,13.613218 C110.468459,13.9222977 110.372532,14.0864731 110.006926,14.0864731 L105.176577,14.0864731 C104.810971,14.0864731 104.715768,13.9222977 104.715768,13.613218 L104.715768,12.7489809 L110.468459,12.7489809 L110.468459,13.613218 Z M113.459192,5.33773935 L106.261813,5.33773935 C106.517013,4.70142063 106.612578,4.30895615 106.708504,3.96652254 L112.439114,3.96652254 C112.629157,3.96652254 112.980646,3.9016677 112.980646,3.51068561 C112.980646,3.10080296 112.614315,3.05262508 112.439114,3.05262508 L106.898909,3.05262508 C106.947777,2.79246448 106.994836,2.51451513 107.04298,1.89376158 C108.748299,1.8444719 110.652348,1.79666461 111.674598,1.64953675 C112.135769,1.58319951 112.37468,1.35491044 112.37468,0.980975911 C112.37468,0.587770229 111.960206,0 111.402384,0 C111.275327,0 109.392997,0.375787523 109.027028,0.441012971 C106.189054,0.881655343 105.121555,0.915009265 100.832014,0.996170476 C100.688667,0.996170476 100.226049,0.996170476 100.226049,1.45126621 C100.226049,1.5020383 100.226049,1.81260037 100.577538,1.89376158 C100.912013,1.97529339 101.843767,1.95861643 104.968073,1.94268067 C104.936942,2.33440395 104.905087,2.64496603 104.840654,3.05262508 L100.595275,3.05262508 C100.403422,3.05262508 100.052295,3.11822112 100.052295,3.51068561 C100.052295,3.91723286 100.418987,3.96652254 100.595275,3.96652254 L104.682465,3.96652254 C104.522467,4.61803582 104.362831,5.04385423 104.266543,5.33773935 L99.5889522,5.33773935 C99.3981852,5.33773935 99.0481442,5.38739963 99.0481442,5.77838172 C99.0481442,6.18678196 99.4137507,6.23644225 99.5889522,6.23644225 L103.884285,6.23644225 C102.561224,8.89586164 100.464236,10.1692403 99.3181862,10.8040766 C99.1911289,10.8863496 99,10.9864114 99,11.2621371 C99,11.5408277 99.2215358,11.7201977 99.4448815,11.7201977 C99.6675033,11.7201977 101.10278,10.882273 102.586925,9.82050649 L102.586925,13.4334775 C102.586925,14.2825201 103.015879,15 104.2441,15 L110.906825,15 C112.11948,15 112.566171,14.3151328 112.566171,13.4334775 L112.566171,8.99518221 C112.566171,8.14539839 112.152058,7.42791847 110.906825,7.42791847 L105.083185,7.42791847 C105.37024,7.03508338 105.576572,6.74268067 105.831411,6.23644225 L113.459192,6.23644225 C113.651407,6.23644225 114,6.18678196 114,5.77838172 C114,5.36998147 113.63367,5.33773935 113.459192,5.33773935 Z" id="Fill-12"></path>
                            <path d="M121.398071,4 C121.592553,4 122,3.94766734 122,3.5010142 C122,3.07139959 121.628717,3 121.398071,3 L116.601125,3 C116.390169,3 116,3.05476673 116,3.5010142 C116,3.93022312 116.372087,4 116.601125,4 L121.398071,4 Z" id="Fill-13"></path>
                            <path d="M116.574783,2 L120.427519,2 C120.628962,2 121,1.96284063 121,1.50949628 C121,1.05408753 120.646228,1 120.427519,1 L116.574783,1 C116.389072,1 116,1.05408753 116,1.50949628 C116,1.94591247 116.371806,2 116.574783,2" id="Fill-14"></path>
                            <path d="M120.427519,8 L116.574783,8 C116.389072,8 116,8.05495868 116,8.50826446 C116,8.94669421 116.371806,9 116.574783,9 L120.427519,9 C120.628962,9 121,8.96528926 121,8.50826446 C121,8.05495868 120.646228,8 120.427519,8" id="Fill-15"></path>
                            <path d="M120.427519,6 L116.574783,6 C116.389072,6 116,6.05495868 116,6.50826446 C116,6.94669421 116.371806,7 116.574783,7 L120.427519,7 C120.628962,7 121,6.96528926 121,6.50826446 C121,6.05495868 120.646228,6 120.427519,6" id="Fill-16"></path>
                            <path d="M119.220982,14.4683831 C119.220982,14.9534588 119.074926,14.9534588 118.438013,14.9534588 C117.983961,14.9534588 117.879358,14.8414203 117.879358,14.4683831 L117.879358,11.5333145 C117.879358,11.0482388 118.046722,11.0482388 118.685185,11.0482388 C119.137688,11.0482388 119.220982,11.1585797 119.220982,11.5333145 L119.220982,14.4683831 Z M119.497211,10 L117.501627,10 C116.749651,10 116,10.3199887 116,11.421276 L116,14.5795728 C116,15.5891922 116.632264,16 117.501627,16 L119.497211,16 C120.265071,16 121,15.6834064 121,14.5795728 L121,11.421276 C121,10.4116565 120.368123,10 119.497211,10 Z" id="Fill-17"></path>
                            <path d="M123.87729,8.47907593 L125.92848,8.47907593 L125.92848,9.43760651 L124.290206,9.43760651 C123.939535,9.43760651 123.87729,9.32171937 123.87729,8.98655558 L123.87729,8.47907593 Z M123.87729,6.70327589 L125.92848,6.70327589 L125.92848,7.61295209 L123.87729,7.61295209 L123.87729,6.70327589 Z M123.87729,5.48721833 C123.87729,5.1535694 123.939535,4.94603295 124.290206,4.94603295 L125.92848,4.94603295 L125.92848,5.83601591 L123.87729,5.83601591 L123.87729,5.48721833 Z M125.286126,2.18594963 L127.229111,2.18594963 C127.229111,2.60102253 127.209931,2.78280629 127.304746,2.98390456 C126.954799,2.83317553 126.583138,2.80136338 126.550568,2.80136338 C126.185784,2.80136338 125.946213,3.03578868 125.881073,3.20128763 C125.818828,3.35239538 125.563696,4.0352206 125.515564,4.1689074 L124.095148,4.1689074 C124.245694,3.94925204 124.351728,3.61939027 124.254741,3.46866124 C125.373704,3.55273622 125.286126,2.70213975 125.286126,2.18594963 Z M122.143478,8.73167961 C122.143478,9.71672032 122.845181,10 123.545076,10 L130.472727,10 C130.630873,10 131,9.94887332 131,9.55046393 C131,9.14902481 130.630873,9.11531907 130.472727,9.11531907 L127.511023,9.11531907 L127.511023,8.15640977 L129.850639,8.15640977 C129.993947,8.15640977 130.360903,8.12459761 130.360903,7.72391593 C130.360903,7.30657073 129.993947,7.29028593 129.850639,7.29028593 L127.511023,7.29028593 L127.511023,6.38174588 L129.850639,6.38174588 C129.993947,6.38174588 130.360903,6.34917629 130.360903,5.94887332 C130.360903,5.54819163 129.993947,5.51410718 129.850639,5.51410718 L127.511023,5.51410718 L127.511023,4.6237455 L130.328333,4.6237455 C130.487564,4.6237455 130.838597,4.68055293 130.838597,4.28024995 C130.838597,3.88070441 130.472727,3.84661996 130.328333,3.84661996 L127.33225,3.84661996 C127.395942,3.7633024 127.596429,3.57129332 127.607286,3.2777883 C127.608009,3.27021397 127.843238,3.34141261 128.145054,3.34141261 C129.197428,3.34141261 129.197428,2.6517705 129.197428,2.18594963 L130.424596,2.18594963 C130.59975,2.18594963 130.965982,2.13482295 130.965982,1.71747775 C130.965982,1.28422647 130.583465,1.25014202 130.424596,1.25014202 L129.197428,1.25014202 C129.197428,0.799091081 129.197428,0 128.162786,0 C127.126696,0 127.229111,0.716909676 127.229111,1.25014202 L125.286126,1.25014202 C125.286126,0.733194471 125.373704,0 124.383936,0 C123.347122,0 123.347122,0.700624882 123.347122,1.25014202 L122.025502,1.25014202 C121.834424,1.25014202 121.483391,1.3012687 121.483391,1.71747775 C121.483391,2.13482295 121.849985,2.18594963 122.025502,2.18594963 L123.347122,2.18594963 C123.347122,2.33099792 123.347122,2.44650634 123.427824,2.64646847 C122.757604,2.56239349 122.670751,3.04639273 122.573764,3.29710282 C122.310309,3.97386859 121.933582,4.86536641 121.277476,5.85116455 C121.166738,5.98901723 121.028134,6.30789623 121.013297,6.38174588 C120.959375,6.65290665 121.069751,6.84983905 121.338997,6.84983905 C121.43526,6.84983905 121.634661,6.84983905 122.143478,6.41545162 L122.143478,8.73167961 Z" id="Fill-18"></path>
                            <path d="M126.535616,13.3232678 C126.355496,13.184769 125.82329,12.7006086 125.336298,12.1840668 C125.171003,11.9952403 125.13913,11.9784644 125.024238,11.9433521 L127.916166,11.9433521 C128.160774,11.9433521 128.226744,12.0826311 128.226744,12.1840668 C128.226744,12.4774501 126.861389,13.1153246 126.535616,13.3232678 M131.64013,15.053917 C129.584686,14.5385456 129.354903,14.4874376 128.489882,14.0922285 C128.931658,13.8507335 131.118301,12.5972222 131.118301,11.7724719 C131.118301,11.7034176 131.118301,11 130.155808,11 L122.793863,11 C122.614484,11 122.238678,11.0503277 122.238678,11.4806492 C122.238678,11.8930243 122.598547,11.9433521 122.793863,11.9433521 L124.768512,11.9433521 C124.261878,12.0986267 123.983915,12.494226 123.983915,12.8539326 C123.983915,13.2495318 124.214069,13.5237984 125.257357,14.1090044 C124.068045,14.6247659 123.763398,14.7160581 122.407309,15.0262172 C122,15.110877 122,15.454588 122,15.4897004 C122,15.7815231 122.229412,15.9703496 122.455859,15.9703496 C122.471796,15.9703496 124.523905,15.8103933 126.856942,14.8830368 C129.013565,15.7409488 131.346231,16 131.542658,16 C131.81988,16 132,15.7752809 132,15.5177903 C132,15.4323502 131.984805,15.1389669 131.64013,15.053917" id="Fill-19"></path>
                            <path d="M139.239825,4.37807358 L139.239825,2.16250693 C139.239825,1.78018118 139.239825,1 138.024049,1 C136.841835,1 136.841835,1.84636717 136.841835,2.16250693 L136.841835,4.49417637 L133.616729,4.6446663 C133.437737,4.6446663 133,4.67720466 133,5.19190238 C133,5.52357182 133.243227,5.72286929 133.66256,5.70623036 L136.841835,5.55795896 L136.841835,12.4749492 C136.841835,13.3220558 136.874314,14.7696432 139.209512,14.9515622 C139.807836,15 142.662328,15 143.778142,15 C145.592963,15 145.997861,14.9515622 145.997861,14.3203919 C145.997861,13.8378628 145.609202,13.6733222 145.365614,13.6733222 C145.171105,13.6733222 144.182678,13.8378628 143.95569,13.8545018 C143.194613,13.921797 142.239747,13.9539656 141.461348,13.9539656 C139.580126,13.9539656 139.239825,13.5561102 139.239825,12.3270475 L139.239825,5.44111666 L143.807733,5.2425587 C143.936203,5.2425587 144.115195,5.27509706 144.115195,5.47513404 C144.115195,5.94028471 143.111612,7.63449806 142.254543,8.28156776 C141.443665,8.89535959 141.362109,8.94638565 141.362109,9.26141616 C141.362109,9.62747273 141.669932,9.84193012 141.913881,9.84193012 C142.2697,9.84193012 143.709215,9.0136809 144.810955,8.01645406 C145.801907,7.11869107 147,5.64115363 147,5.00850434 C147,4.19615456 146.334553,4.07968201 145.896095,4.09558144 L139.239825,4.37807358 Z" id="Fill-20"></path>
                            <path d="M150.736695,12.3332832 C152.259201,12.0351853 155.791841,11.3405007 159.196042,7.81482595 C160.036972,6.9370724 160.603726,6.05894294 160.960707,5.41425457 C161.075897,5.19848132 161.188512,5 161.480353,5 C161.772195,5 162,5.24885347 162,5.49620329 C162,5.59544395 161.124844,8.46101797 157.914591,11.2408841 C154.964528,13.8076085 150.781961,15 150.15154,15 C149.291841,15 149,14.124126 149,13.6414555 C149,12.6644613 149.598771,12.5483046 150.736695,12.3332832" id="Fill-21"></path>
                            <path d="M153.302763,4.01282508 C152.268828,2.94620591 151.134225,2.33238333 150.566545,2.03526897 C150.15176,1.79943 150,1.72069825 150,1.47025294 C150,1.18774492 150.267567,1 150.502208,1 C150.702409,1 152.051217,1.31457072 153.517724,1.92625579 C155.952693,2.92946206 156,3.3676523 156,3.77698611 C156,4.46775917 155.333922,5 154.80106,5 C154.251167,5 154.166772,4.90630566 153.302763,4.01282508" id="Fill-22"></path>
                            <path d="M173.925049,4.37950109 C174.380269,4.37950109 174.380269,4.80175434 174.380269,4.9138635 C174.380269,5.45117615 173.794247,7.70774175 172.867919,9.13602718 C172.623312,8.22882807 169.010374,6.78247241 168.700736,6.78247241 C168.440241,6.78247241 168.166075,7.02660485 168.166075,7.35150014 C168.166075,7.61075257 168.310548,7.70774175 168.490123,7.83902747 C169.565358,8.56847457 169.921184,8.91070253 170.622488,9.78729289 C171.223659,10.5348102 171.322684,10.6638833 171.728392,10.6812159 C171.060711,11.3453889 169.304124,13.0841872 165.268482,13.8151094 C164.680982,13.9124674 164.406816,13.9770039 164.406816,14.4158523 C164.406816,14.610937 164.535401,15 164.99062,15 C165.122161,15 165.268482,14.9841425 165.690817,14.9184996 C168.019015,14.5626268 169.921184,14.0260517 171.51667,13.099676 C176.318279,10.3555831 177,4.67194373 177,4.57384822 C177,3.97199905 176.593184,3.33880357 175.731518,3.33880357 L170.198306,3.33880357 C170.24671,3.25804072 170.654265,2.5105234 170.654265,2.05655507 C170.654265,1.32489529 169.889407,1 169.254981,1 C168.864054,1 168.522639,1.11432184 168.29392,1.3898006 C168.166075,1.56902774 168.147969,1.61733793 167.920729,2.44414298 C167.041696,5.72628612 165.153938,7.13945157 164.601171,7.56096726 C164.063923,7.9684693 164,8.0167795 164,8.24394805 C164,8.56847457 164.290794,8.82920212 164.535401,8.82920212 C164.795896,8.82920212 165.560754,8.35826989 165.887758,8.14585254 C168.098826,6.7175671 168.979337,5.40212839 169.645539,4.37950109 L173.925049,4.37950109 Z" id="Fill-23"></path>
                            <path d="M180.641855,7 C180.045261,7 180,7.82274426 180,8.01174586 C180,8.29204485 180.092661,9 180.641855,9 L193.35565,9 C193.763358,9 194,8.57661506 194,7.98985585 C194,7.75280299 193.904844,7 193.35565,7 L180.641855,7 Z" id="Fill-24"></path>
                        </g>
                    </g>
                </g>
            </g>
        </g>
    </g>
</svg>