<?xml version="1.0" encoding="UTF-8"?>
<svg width="122px" height="18px" viewBox="0 0 122 18" version="1.1" xmlns="http://www.w3.org/2000/svg" xmlns:xlink="http://www.w3.org/1999/xlink">
    <!-- Generator: Sketch 53 (72520) - https://sketchapp.com -->
    <title>Life&amp;Com OL SM</title>
    <desc>Created with Sketch.</desc>
    <g id="Welcome" stroke="none" stroke-width="1" fill="none" fill-rule="evenodd">
        <g id="Desktop-HD" transform="translate(-643.000000, -177.000000)" fill="#4A4A4A" fill-rule="nonzero">
            <path d="M643,194.694915 L643,178.569007 L646.225438,178.569007 L646.225438,191.992736 L652.763487,191.992736 L652.763487,194.694915 L643,194.694915 Z M656.524076,194.694915 L656.524076,182.491525 L659.705927,182.491525 L659.705927,194.694915 L656.524076,194.694915 Z M658.136795,180.530266 C657.025327,180.530266 656.218967,179.789346 656.218967,178.786925 C656.218967,177.74092 657.025327,177.043584 658.136795,177.043584 C659.22647,177.043584 660.032829,177.74092 660.032829,178.786925 C660.032829,179.789346 659.22647,180.530266 658.136795,180.530266 Z M671.464729,177.435835 L670.876305,179.789346 C670.462229,179.636804 669.982772,179.527845 669.590489,179.527845 C668.631575,179.527845 668.108531,180.094431 668.108531,181.445521 L668.108531,182.491525 L670.396848,182.491525 L670.396848,185.01937 L668.108531,185.01937 L668.108531,194.694915 L664.904887,194.694915 L664.904887,185.01937 L663.270374,185.01937 L663.270374,182.644068 L664.904887,182.513317 L664.904887,181.510896 C664.904887,178.961259 666.081736,177 669.154619,177 C670.091739,177 670.919892,177.217918 671.464729,177.435835 Z M678.712278,195 C675.312493,195 672.653686,192.624697 672.653686,188.615012 C672.653686,184.64891 675.42146,182.186441 678.341789,182.186441 C681.697987,182.186441 683.441467,184.64891 683.441467,188.026634 C683.441467,188.615012 683.376087,189.20339 683.288913,189.486683 L675.770156,189.486683 C676.031678,191.491525 677.339288,192.53753 679.148148,192.53753 C680.150649,192.53753 681.022389,192.232446 681.894129,191.687651 L682.983804,193.64891 C681.785161,194.476998 680.237823,195 678.712278,195 Z M675.726569,187.372881 L680.695486,187.372881 C680.695486,185.716707 679.954508,184.670702 678.385376,184.670702 C677.099559,184.670702 675.966297,185.585956 675.726569,187.372881 Z M695.430312,190.227603 C695.430312,191.600484 696.498194,192.53753 698.045532,192.53753 C698.830098,192.53753 699.636457,192.232446 700.39923,191.731235 C699.02624,190.598063 697.78401,189.312349 696.759716,187.961259 C695.97515,188.636804 695.430312,189.355932 695.430312,190.227603 Z M697.043031,182.360775 C697.043031,183.03632 697.260966,183.755448 697.631456,184.51816 C698.895479,183.755448 699.876186,182.970944 699.876186,181.794189 C699.876186,180.987893 699.505696,180.399516 698.65575,180.399516 C697.71863,180.399516 697.043031,181.162228 697.043031,182.360775 Z M707.394943,192.384988 L706.610377,195 C705.346354,194.716707 703.95157,194.150121 702.600373,193.300242 C701.27097,194.346247 699.636457,195 697.653249,195 C694.275257,195 692.379223,192.929782 692.379223,190.423729 C692.379223,188.179177 693.7958,186.871671 695.408519,185.847458 C694.754714,184.627119 694.384225,183.428571 694.384225,182.360775 C694.384225,180.116223 696.018737,178.263923 698.612163,178.263923 C700.90048,178.263923 702.360645,179.658596 702.360645,181.772397 C702.360645,183.90799 700.617165,185.237288 698.895479,186.435835 C699.854392,187.634383 701.096622,188.811138 702.382438,189.791768 C703.232385,188.658596 703.929777,187.285714 704.365646,185.694915 L707.264182,185.694915 C706.675757,187.677966 705.782224,189.552058 704.539994,191.230024 C705.586082,191.818402 706.56679,192.232446 707.394943,192.384988 Z M723.764281,195 C719.688897,195 716.376285,192.079903 716.376285,186.697337 C716.376285,181.380145 719.797864,178.263923 723.873248,178.263923 C725.921837,178.263923 727.556349,179.244552 728.602437,180.33414 L726.902545,182.382567 C726.096185,181.598063 725.159065,181.031477 723.938629,181.031477 C721.497757,181.031477 719.667103,183.123487 719.667103,186.588378 C719.667103,190.096852 721.323409,192.210654 723.873248,192.210654 C725.246239,192.210654 726.335914,191.556901 727.207654,190.619855 L728.907546,192.624697 C727.578143,194.171913 725.856457,195 723.764281,195 Z M737.549879,195 C734.498789,195 731.687428,192.646489 731.687428,188.615012 C731.687428,184.539952 734.498789,182.186441 737.549879,182.186441 C740.600969,182.186441 743.41233,184.539952 743.41233,188.615012 C743.41233,192.646489 740.600969,195 737.549879,195 Z M737.549879,192.384988 C739.206185,192.384988 740.143305,190.903148 740.143305,188.615012 C740.143305,186.305085 739.206185,184.801453 737.549879,184.801453 C735.893573,184.801453 734.956453,186.305085 734.956453,188.615012 C734.956453,190.903148 735.893573,192.384988 737.549879,192.384988 Z M747.30368,194.694915 L747.30368,182.491525 L749.9189,182.491525 L750.136835,184.125908 L750.224009,184.125908 C751.248303,183.058111 752.381565,182.186441 753.97249,182.186441 C755.71597,182.186441 756.740264,182.970944 757.328689,184.322034 C758.440157,183.145278 759.617006,182.186441 761.207931,182.186441 C763.801358,182.186441 765,184.016949 765,187.089588 L765,194.694915 L761.796356,194.694915 L761.796356,187.48184 C761.796356,185.607748 761.251518,184.932203 760.096463,184.932203 C759.399071,184.932203 758.614505,185.389831 757.742765,186.305085 L757.742765,194.694915 L754.539121,194.694915 L754.539121,187.48184 C754.539121,185.607748 753.994284,184.932203 752.839228,184.932203 C752.141836,184.932203 751.35727,185.389831 750.485531,186.305085 L750.485531,194.694915 L747.30368,194.694915 Z" id="Life&amp;Com-OL-SM"></path>
        </g>
    </g>
</svg>