<?xml version="1.0" encoding="UTF-8"?>
<svg width="18px" height="122px" viewBox="0 0 18 122" version="1.1" xmlns="http://www.w3.org/2000/svg" xmlns:xlink="http://www.w3.org/1999/xlink">
    <!-- Generator: Sketch 53 (72520) - https://sketchapp.com -->
    <title>Life&amp;Com OL SM V</title>
    <desc>Created with Sketch.</desc>
    <g id="Welcome" stroke="none" stroke-width="1" fill="none" fill-rule="evenodd">
        <g id="Desktop-HD" transform="translate(-668.000000, -35.000000)" fill="#4A4A4A" fill-rule="nonzero">
            <path d="M616,104.694915 L616,88.5690073 L619.225438,88.5690073 L619.225438,101.992736 L625.763487,101.992736 L625.763487,104.694915 L616,104.694915 Z M629.524076,104.694915 L629.524076,92.4915254 L632.705927,92.4915254 L632.705927,104.694915 L629.524076,104.694915 Z M631.136795,90.5302663 C630.025327,90.5302663 629.218967,89.7893462 629.218967,88.7869249 C629.218967,87.7409201 630.025327,87.0435835 631.136795,87.0435835 C632.22647,87.0435835 633.032829,87.7409201 633.032829,88.7869249 C633.032829,89.7893462 632.22647,90.5302663 631.136795,90.5302663 Z M644.464729,87.4358354 L643.876305,89.7893462 C643.462229,89.6368039 642.982772,89.527845 642.590489,89.527845 C641.631575,89.527845 641.108531,90.094431 641.108531,91.4455206 L641.108531,92.4915254 L643.396848,92.4915254 L643.396848,95.0193705 L641.108531,95.0193705 L641.108531,104.694915 L637.904887,104.694915 L637.904887,95.0193705 L636.270374,95.0193705 L636.270374,92.6440678 L637.904887,92.5133172 L637.904887,91.5108959 C637.904887,88.9612591 639.081736,87 642.154619,87 C643.091739,87 643.919892,87.2179177 644.464729,87.4358354 Z M651.712278,105 C648.312493,105 645.653686,102.624697 645.653686,98.6150121 C645.653686,94.6489104 648.42146,92.1864407 651.341789,92.1864407 C654.697987,92.1864407 656.441467,94.6489104 656.441467,98.0266344 C656.441467,98.6150121 656.376087,99.2033898 656.288913,99.4866828 L648.770156,99.4866828 C649.031678,101.491525 650.339288,102.53753 652.148148,102.53753 C653.150649,102.53753 654.022389,102.232446 654.894129,101.687651 L655.983804,103.64891 C654.785161,104.476998 653.237823,105 651.712278,105 Z M648.726569,97.3728814 L653.695486,97.3728814 C653.695486,95.716707 652.954508,94.6707022 651.385376,94.6707022 C650.099559,94.6707022 648.966297,95.5859564 648.726569,97.3728814 Z M668.430312,100.227603 C668.430312,101.600484 669.498194,102.53753 671.045532,102.53753 C671.830098,102.53753 672.636457,102.232446 673.39923,101.731235 C672.02624,100.598063 670.78401,99.3123487 669.759716,97.9612591 C668.97515,98.6368039 668.430312,99.3559322 668.430312,100.227603 Z M670.043031,92.3607748 C670.043031,93.0363196 670.260966,93.7554479 670.631456,94.5181598 C671.895479,93.7554479 672.876186,92.9709443 672.876186,91.7941889 C672.876186,90.9878935 672.505696,90.3995157 671.65575,90.3995157 C670.71863,90.3995157 670.043031,91.1622276 670.043031,92.3607748 Z M680.394943,102.384988 L679.610377,105 C678.346354,104.716707 676.95157,104.150121 675.600373,103.300242 C674.27097,104.346247 672.636457,105 670.653249,105 C667.275257,105 665.379223,102.929782 665.379223,100.423729 C665.379223,98.1791768 666.7958,96.8716707 668.408519,95.8474576 C667.754714,94.6271186 667.384225,93.4285714 667.384225,92.3607748 C667.384225,90.1162228 669.018737,88.2639225 671.612163,88.2639225 C673.90048,88.2639225 675.360645,89.6585956 675.360645,91.7723971 C675.360645,93.9079903 673.617165,95.2372881 671.895479,96.4358354 C672.854392,97.6343826 674.096622,98.811138 675.382438,99.7917676 C676.232385,98.6585956 676.929777,97.2857143 677.365646,95.6949153 L680.264182,95.6949153 C679.675757,97.6779661 678.782224,99.5520581 677.539994,101.230024 C678.586082,101.818402 679.56679,102.232446 680.394943,102.384988 Z M696.764281,105 C692.688897,105 689.376285,102.079903 689.376285,96.6973366 C689.376285,91.3801453 692.797864,88.2639225 696.873248,88.2639225 C698.921837,88.2639225 700.556349,89.2445521 701.602437,90.3341404 L699.902545,92.3825666 C699.096185,91.598063 698.159065,91.031477 696.938629,91.031477 C694.497757,91.031477 692.667103,93.1234867 692.667103,96.5883777 C692.667103,100.096852 694.323409,102.210654 696.873248,102.210654 C698.246239,102.210654 699.335914,101.556901 700.207654,100.619855 L701.907546,102.624697 C700.578143,104.171913 698.856457,105 696.764281,105 Z M710.549879,105 C707.498789,105 704.687428,102.646489 704.687428,98.6150121 C704.687428,94.5399516 707.498789,92.1864407 710.549879,92.1864407 C713.600969,92.1864407 716.41233,94.5399516 716.41233,98.6150121 C716.41233,102.646489 713.600969,105 710.549879,105 Z M710.549879,102.384988 C712.206185,102.384988 713.143305,100.903148 713.143305,98.6150121 C713.143305,96.3050847 712.206185,94.8014528 710.549879,94.8014528 C708.893573,94.8014528 707.956453,96.3050847 707.956453,98.6150121 C707.956453,100.903148 708.893573,102.384988 710.549879,102.384988 Z M720.30368,104.694915 L720.30368,92.4915254 L722.9189,92.4915254 L723.136835,94.125908 L723.224009,94.125908 C724.248303,93.0581114 725.381565,92.1864407 726.97249,92.1864407 C728.71597,92.1864407 729.740264,92.9709443 730.328689,94.3220339 C731.440157,93.1452785 732.617006,92.1864407 734.207931,92.1864407 C736.801358,92.1864407 738,94.0169492 738,97.0895884 L738,104.694915 L734.796356,104.694915 L734.796356,97.4818402 C734.796356,95.6077482 734.251518,94.9322034 733.096463,94.9322034 C732.399071,94.9322034 731.614505,95.3898305 730.742765,96.3050847 L730.742765,104.694915 L727.539121,104.694915 L727.539121,97.4818402 C727.539121,95.6077482 726.994284,94.9322034 725.839228,94.9322034 C725.141836,94.9322034 724.35727,95.3898305 723.485531,96.3050847 L723.485531,104.694915 L720.30368,104.694915 Z" id="Life&amp;Com-OL-SM-V" transform="translate(677.000000, 96.000000) rotate(-270.000000) translate(-677.000000, -96.000000) "></path>
        </g>
    </g>
</svg>